HIERARCHY
ROOT SpineBase
{
  OFFSET 0.000000 0.000000 0.000000
  CHANNELS 6 Xposition Yposition Zposition Zrotation Xrotation Yrotation
  JOINT SpineMid
  {
    OFFSET -0.000000 34.691485 0.000000
    CHANNELS 3 Zrotation Xrotation Yrotation
    JOINT SpineShoulder
    {
      OFFSET 0.173431 25.614698 -0.822699
      CHANNELS 3 Zrotation Xrotation Yrotation
      JOINT Neck
      {
        OFFSET 0.044744 8.427449 -0.617163
        CHANNELS 3 Zrotation Xrotation Yrotation
        JOINT Head
        {
          OFFSET 5.024634 9.354302 6.023153
          CHANNELS 3 Zrotation Xrotation Yrotation
          End Site
          {
            OFFSET 0 0 0
          }
        }
      }
      JOINT ShoulderLeft
      {
        OFFSET -2.102201 -5.427453 -14.683421
        CHANNELS 3 Zrotation Xrotation Yrotation
        JOINT ElbowLeft
        {
          OFFSET 0.915318 -28.822044 -7.068569
          CHANNELS 3 Zrotation Xrotation Yrotation
          JOINT WristLeft
          {
            OFFSET 4.668476 -22.937432 0.290020
            CHANNELS 3 Zrotation Xrotation Yrotation
            JOINT HandLeft
            {
              OFFSET -0.093160 -6.823338 2.525550
              CHANNELS 3 Zrotation Xrotation Yrotation
              JOINT HandTipLeft
              {
                OFFSET 1.796432 -7.927575 2.316857
                CHANNELS 3 Zrotation Xrotation Yrotation
                End Site
                {
                  OFFSET 0 0 0
                }
              }
              JOINT ThumbLeft
              {
                OFFSET 3.844104 3.151536 5.017417
                CHANNELS 3 Zrotation Xrotation Yrotation
                End Site
                {
                  OFFSET 0 0 0
                }
              }
            }
          }
        }
      }
      JOINT ShoulderRight
      {
        OFFSET 10.718675 -8.171730 8.389550
        CHANNELS 3 Zrotation Xrotation Yrotation
        JOINT ElbowRight
        {
          OFFSET -2.835554 -18.642285 -24.975932
          CHANNELS 3 Zrotation Xrotation Yrotation
          JOINT WristRight
          {
            OFFSET 5.694640 -16.639215 24.413754
            CHANNELS 3 Zrotation Xrotation Yrotation
            JOINT HandRight
            {
              OFFSET 7.013628 -19.919240 21.039899
              CHANNELS 3 Zrotation Xrotation Yrotation
              JOINT HandTipRight
              {
                OFFSET 0.507384 -0.626014 -0.041213
                CHANNELS 3 Zrotation Xrotation Yrotation
                End Site
                {
                  OFFSET 0 0 0
                }
              }
              JOINT ThumbRight
              {
                OFFSET 0.731599 2.233119 -0.996977
                CHANNELS 3 Zrotation Xrotation Yrotation
                End Site
                {
                  OFFSET 0 0 0
                }
              }
            }
          }
        }
      }
    }
  }
  JOINT HipLeft
  {
    OFFSET -3.331977 2.338273 -7.664987
    CHANNELS 3 Zrotation Xrotation Yrotation
    JOINT KneeLeft
    {
      OFFSET -1.028896 -35.235023 -5.750162
      CHANNELS 3 Zrotation Xrotation Yrotation
      JOINT AnkleLeft
      {
        OFFSET -8.723532 -37.806610 -0.189071
        CHANNELS 3 Zrotation Xrotation Yrotation
        JOINT FootLeft
        {
          OFFSET 9.867048 -3.901649 -8.570005
          CHANNELS 3 Zrotation Xrotation Yrotation
          End Site
          {
            OFFSET 0 0 0
          }
        }
      }
    }
  }
  JOINT HipRight
  {
    OFFSET 4.552398 -0.543377 0.429989
    CHANNELS 3 Zrotation Xrotation Yrotation
    JOINT KneeRight
    {
      OFFSET -0.401744 -31.980997 -10.668294
      CHANNELS 3 Zrotation Xrotation Yrotation
      JOINT AnkleRight
      {
        OFFSET -6.901095 -32.835112 -1.498094
        CHANNELS 3 Zrotation Xrotation Yrotation
        JOINT FootRight
        {
          OFFSET 5.783144 3.348170 -15.901647
          CHANNELS 3 Zrotation Xrotation Yrotation
          End Site
          {
            OFFSET 0 0 0
          }
        }
      }
    }
  }
}
MOTION
Frames: 10
Frame Time: 0.033333
-49.047128 79.677411 324.117882 0.630016 0.046180 -40.993139 -0.445246 -0.448121 40.991144 -0.000000 0.000000 0.000000 0.735840 -1.920548 0.578473 0.000000 0.000000 0.000000 -12.529287 0.911150 3.218155 11.554266 4.987752 -1.601665 11.794933 -9.442524 4.187092 -12.902548 14.881755 -1.541357 0.000000 0.000000 0.000000 0.000000 0.000000 0.000000 -1.422035 3.458072 1.364233 16.261290 -16.106158 15.702670 19.617603 34.346086 11.369893 -46.627311 -17.981706 -56.932890 0.000000 0.000000 0.000000 0.000000 0.000000 0.000000 -4.054944 -0.272804 41.320027 4.161414 -4.264311 0.193562 -7.977550 -3.192087 1.403956 0.000000 0.000000 0.000000 -24.272482 -18.636873 46.940787 29.107536 -5.775678 -8.506298 -0.482720 -1.013041 -0.521377 0.000000 0.000000 0.000000
-49.142104 79.666289 324.298036 0.624082 -0.169506 -40.401823 -0.585114 -0.275414 40.401340 -0.000000 0.000000 0.000000 0.604585 -1.770807 0.578706 0.000000 0.000000 0.000000 -12.196767 0.979770 3.141671 12.250244 4.874807 -1.546690 9.287727 -15.651469 3.887345 -8.269578 21.448296 -0.071017 0.000000 0.000000 0.000000 0.000000 0.000000 0.000000 -1.421428 3.457958 1.363453 16.262040 -16.105244 15.705090 19.617101 34.345464 11.368330 -46.623904 -17.984394 -56.931992 0.000000 0.000000 0.000000 0.000000 0.000000 0.000000 -4.452432 0.323273 40.732287 4.184867 -4.734076 0.244601 -10.795105 -5.705380 0.712146 0.000000 0.000000 0.000000 -24.283701 -18.445227 46.431530 29.065078 -5.432797 -8.579306 -0.481943 -1.007287 -0.527424 0.000000 0.000000 0.000000
-49.279440 79.648786 324.388780 0.558010 -0.278587 -40.257850 -0.605871 -0.148005 40.258424 -0.000000 0.000000 0.000000 0.536709 -1.644534 0.552021 0.000000 0.000000 0.000000 -11.827484 1.063401 3.057318 12.820063 4.822170 -1.465442 6.379910 -19.723368 3.032359 -3.585126 25.201559 0.503709 0.000000 0.000000 0.000000 0.000000 0.000000 0.000000 -1.420915 3.457915 1.362787 16.262632 -16.104727 15.707028 19.616740 34.345214 11.367066 -46.620798 -17.986982 -56.931272 0.000000 0.000000 0.000000 0.000000 0.000000 0.000000 -4.473200 0.695987 40.576306 4.094557 -4.922185 0.285928 -12.361823 -7.049210 0.291798 0.000000 0.000000 0.000000 -24.279427 -18.290680 46.344409 29.045225 -5.381074 -8.586097 -0.482263 -1.004341 -0.533778 0.000000 0.000000 0.000000
-49.432724 79.607636 324.420726 0.457284 -0.305302 -40.566123 -0.545921 -0.065464 40.567030 -0.000000 0.000000 0.000000 0.558740 -1.623188 0.526268 0.000000 0.000000 0.000000 -11.451633 1.158278 2.972243 13.320205 4.774058 -1.377278 3.892475 -21.159649 2.142586 0.357284 25.253077 0.446593 0.000000 0.000000 0.000000 0.000000 0.000000 0.000000 -1.420486 3.457916 1.362224 16.263090 -16.104342 15.708606 19.616501 34.345051 11.366097 -46.618428 -17.989298 -56.930994 0.000000 0.000000 0.000000 0.000000 0.000000 0.000000 -4.270426 0.878172 40.862022 3.938653 -4.934539 0.318171 -12.415434 -7.046949 0.292355 0.000000 0.000000 0.000000 -24.073167 -18.209933 46.669887 28.928356 -5.422858 -8.539335 -0.482346 -1.003105 -0.536211 0.000000 0.000000 0.000000
-49.478032 79.529519 324.553547 0.467357 -0.446033 -41.101694 -0.645392 0.028855 41.103676 -0.000000 0.000000 0.000000 0.621355 -1.682149 0.519074 0.000000 0.000000 0.000000 -11.094074 1.211717 2.886312 13.894893 4.678634 -1.312945 1.113722 -20.642618 1.009554 3.894192 23.654000 0.626659 0.000000 0.000000 0.000000 0.000000 0.000000 0.000000 -1.420188 3.457918 1.361831 16.263430 -16.104034 15.709749 19.616308 34.344834 11.365388 -46.616612 -17.990882 -56.930644 0.000000 0.000000 0.000000 0.000000 0.000000 0.000000 -4.376811 1.087475 41.389046 3.842701 -5.068459 0.346493 -10.948800 -5.695588 0.732697 0.000000 0.000000 0.000000 -23.930999 -18.251307 47.219995 28.825381 -5.418997 -8.508331 -0.484575 -1.017991 -0.521542 0.000000 0.000000 0.000000
-49.599419 79.441640 324.612567 0.373697 -0.485324 -41.138749 -0.600725 0.119646 41.140959 -0.000000 0.000000 0.000000 0.700310 -1.765762 0.515211 0.000000 0.000000 0.000000 -10.805000 1.273449 2.818889 14.281524 4.533539 -1.265492 -0.353851 -17.922423 0.425098 6.330560 19.952839 0.992483 0.000000 0.000000 0.000000 0.000000 0.000000 0.000000 -1.420014 3.457985 1.361594 16.263689 -16.103962 15.710496 19.616207 34.344732 11.364911 -46.615473 -17.992034 -56.930547 0.000000 0.000000 0.000000 0.000000 0.000000 0.000000 -4.253773 1.362321 41.404976 3.687145 -5.187881 0.387763 -8.270640 -3.172680 1.420361 0.000000 0.000000 0.000000 -24.100034 -17.857061 47.300075 28.750285 -5.795854 -8.391428 -0.483861 -1.012254 -0.527849 0.000000 0.000000 0.000000
-49.800617 79.435321 324.648498 0.217954 -0.509650 -41.386656 -0.500475 0.238269 41.388666 -0.000000 0.000000 0.000000 0.736586 -1.800533 0.511455 0.000000 0.000000 0.000000 -10.518211 1.353109 2.753920 14.475003 4.401361 -1.208435 -1.699738 -17.238954 -0.089907 7.770163 19.816354 1.394090 0.000000 0.000000 0.000000 0.000000 0.000000 0.000000 -1.419720 3.457939 1.361214 16.263922 -16.103603 15.711477 19.616093 34.344580 11.364379 -46.613937 -17.993395 -56.930298 0.000000 0.000000 0.000000 0.000000 0.000000 0.000000 -3.940890 1.655059 41.615330 3.445297 -5.208578 0.435714 -4.793523 0.177778 2.121525 0.000000 0.000000 0.000000 -24.208044 -17.241321 47.590839 28.517438 -6.382193 -8.174991 -0.482394 -1.000682 -0.540460 0.000000 0.000000 0.000000
-50.009524 79.427408 324.690348 0.072290 -0.544831 -40.887564 -0.411291 0.364566 40.889216 -0.000000 0.000000 0.000000 0.684010 -1.760125 0.522433 0.000000 0.000000 0.000000 -10.188348 1.453942 2.679837 14.403093 4.235174 -1.140353 -1.943664 -16.475287 -0.100131 7.901685 19.832321 1.606965 0.000000 0.000000 0.000000 0.000000 0.000000 0.000000 -1.419394 3.457896 1.360793 16.264176 -16.103240 15.712550 19.615973 34.344397 11.363793 -46.612242 -17.994888 -56.930018 0.000000 0.000000 0.000000 0.000000 0.000000 0.000000 -3.668750 2.113700 41.072899 3.135262 -5.378710 0.502921 -0.928157 3.985401 2.675822 0.000000 0.000000 0.000000 -24.532627 -16.356887 47.175337 28.310950 -6.941975 -7.974707 -0.479763 -0.983920 -0.556452 0.000000 0.000000 0.000000
-50.217219 79.444447 324.698383 -0.059384 -0.540912 -39.886458 -0.301309 0.453130 39.887369 -0.000000 0.000000 0.000000 0.661249 -1.774976 0.545087 0.000000 0.000000 0.000000 -9.772002 1.580394 2.585531 14.002328 4.061835 -1.047870 -2.111846 -15.752045 -0.183780 6.934396 20.134877 1.866856 0.000000 0.000000 0.000000 0.000000 0.000000 0.000000 -1.419068 3.457829 1.360375 16.264399 -16.102865 15.713571 19.615860 34.344240 11.363244 -46.610578 -17.996334 -56.929727 0.000000 0.000000 0.000000 0.000000 0.000000 0.000000 -3.354515 2.556645 40.024719 2.823723 -5.523682 0.562361 -0.577098 4.404983 2.798918 0.000000 0.000000 0.000000 -24.910832 -15.393884 46.276671 28.142793 -7.404049 -7.811152 -0.476743 -0.965464 -0.573533 0.000000 0.000000 0.000000
-50.392177 79.511894 324.685275 -0.148057 -0.522983 -39.151615 -0.215387 0.499040 39.151877 -0.000000 0.000000 0.000000 0.639374 -1.806586 0.576447 0.000000 0.000000 0.000000 -9.408221 1.663977 2.499567 13.549055 3.974961 -0.964719 -2.129371 -15.343346 -0.236579 7.164157 19.547597 1.927914 0.000000 0.000000 0.000000 0.000000 0.000000 0.000000 -1.418740 3.457671 1.359968 16.264527 -16.102329 15.714470 19.615681 34.343887 11.362761 -46.608864 -17.997350 -56.929055 0.000000 0.000000 0.000000 0.000000 0.000000 0.000000 -3.082815 2.856623 39.249014 2.568824 -5.623635 0.609766 -0.601758 4.455166 2.878771 0.000000 0.000000 0.000000 -25.185324 -14.535735 45.617482 27.922404 -7.854411 -7.636386 -0.473146 -0.945165 -0.591099 0.000000 0.000000 0.000000
